<svg width="28" height="26" viewBox="0 0 28 26" fill="none" xmlns="http://www.w3.org/2000/svg">
<path fill-rule="evenodd" clip-rule="evenodd" d="M9.71768 3.85048C9.13498 3.85048 8.57902 4.09504 8.18527 4.52459L7.28798 5.50346H20.7001L19.8028 4.52459C19.409 4.09504 18.8531 3.85048 18.2704 3.85048H9.71768ZM22.2928 7.30179C22.2745 7.3029 22.256 7.30346 22.2375 7.30346H5.69428C5.50083 7.62489 5.39659 7.9951 5.39659 8.37542V18.71C5.39659 20.4065 6.77186 21.7818 8.46835 21.7818H19.5197C21.2162 21.7818 22.5915 20.4065 22.5915 18.71V8.37542C22.5915 7.99444 22.4869 7.62361 22.2928 7.30179ZM4.54431 5.83496C3.93386 6.53925 3.59659 7.44099 3.59659 8.37542V18.71C3.59659 21.4006 5.77775 23.5818 8.46835 23.5818H19.5197C22.2103 23.5818 24.3915 21.4006 24.3915 18.71V8.37542C24.3915 7.40497 24.0277 6.46978 23.3719 5.75441L21.1297 3.30828C20.395 2.50681 19.3576 2.05048 18.2704 2.05048H9.71768C8.63043 2.05048 7.59308 2.50681 6.8584 3.30828L4.61612 5.75441C4.60769 5.7636 4.59931 5.77283 4.59098 5.7821C4.57475 5.7991 4.55918 5.81673 4.54431 5.83496Z" fill="#007AFF"/>
<path fill-rule="evenodd" clip-rule="evenodd" d="M14.0657 8.76921C14.3334 8.017 15.3331 7.72278 15.9393 8.31512L17.8684 10.2002C18.2373 10.5606 18.371 11.1012 18.2027 11.5948L17.9997 12.1897C17.9982 12.1943 17.9977 12.197 17.9975 12.1983C17.9983 12.2001 18.0014 12.2062 18.01 12.2134C18.02 12.222 18.0319 12.2271 18.0425 12.2286C18.0505 12.2298 18.0624 12.2299 18.0813 12.2207C18.4971 12.0176 19.0007 12.0947 19.3355 12.4218L18.9725 12.8027L19.3355 12.4218L19.5491 12.6305C20.1503 13.218 20.1503 14.1786 19.5491 14.7661L16.3047 17.9364C16.408 18.3047 16.3126 18.7168 16.0182 19.0044L15.4134 19.5954C14.8768 20.1197 14.0142 20.1197 13.4776 19.5954L13.1262 19.252C12.9738 19.1031 12.628 19.1095 12.4432 19.367C12.0417 19.9263 11.4943 20.519 10.8473 20.8123C10.5141 20.9634 10.1392 21.0416 9.74385 20.9774C9.3465 20.9129 8.97504 20.7119 8.63886 20.3834C8.30337 20.0556 8.09211 19.6876 8.02387 19.2865C7.95582 18.8865 8.03943 18.5094 8.19638 18.1788C8.49959 17.5401 9.10866 17.0048 9.67764 16.6148C9.79721 16.5328 9.86881 16.4077 9.88656 16.2865C9.90352 16.1708 9.87166 16.0718 9.79673 15.9986L9.44532 15.6552C8.89829 15.1207 8.89829 14.246 9.44532 13.7114L10.0502 13.1204C10.3438 12.8335 10.7598 12.7447 11.1293 12.854L12.4695 11.5444C13.1877 10.8426 13.7345 9.69991 14.0657 8.76921ZM11.9725 13.5013L15.6551 17.0998L18.823 14.0044C18.9982 13.8331 18.9982 13.5635 18.823 13.3922L18.6094 13.1836C18.6026 13.1769 18.5918 13.1706 18.577 13.1683C18.5622 13.1659 18.5478 13.1682 18.5357 13.1741C17.7079 13.5786 16.68 12.8158 17.0114 11.8441L17.2144 11.2492C17.2475 11.1522 17.2239 11.0417 17.1423 10.9619L15.2132 9.07683C15.2034 9.0673 15.1791 9.05223 15.131 9.06449C15.0807 9.07732 15.0566 9.10777 15.0494 9.12804C14.7021 10.104 14.0892 11.4329 13.1956 12.3061L11.9725 13.5013ZM17.9975 12.1989C17.9975 12.199 17.9975 12.199 17.9975 12.1989L17.9975 12.1989ZM10.8164 13.8674C10.7977 13.8674 10.7844 13.8742 10.7763 13.8821L10.1714 14.4732C10.0504 14.5915 10.0504 14.7752 10.1714 14.8935L10.5228 15.2369C11.2275 15.9254 10.9659 17.0102 10.2638 17.4914C9.74168 17.8493 9.32023 18.2551 9.13876 18.6374C9.05337 18.8172 9.0311 18.9705 9.05428 19.1067C9.07727 19.2419 9.15435 19.4159 9.36497 19.6217C9.57491 19.8268 9.75812 19.9076 9.90951 19.9322C10.0629 19.9571 10.2308 19.9319 10.42 19.8461C10.8178 19.6658 11.2335 19.2516 11.5974 18.7446C12.0919 18.0558 13.1681 17.8217 13.8523 18.4903L14.2037 18.8337C14.3352 18.9621 14.5558 18.9621 14.6873 18.8337L15.2921 18.2427C15.2965 18.2383 15.2979 18.2354 15.2984 18.2342C15.2988 18.2333 15.299 18.2325 15.2992 18.2316C15.2993 18.2309 15.2994 18.2302 15.2994 18.2295C15.2994 18.2279 15.2991 18.2264 15.2984 18.2248C15.2979 18.2236 15.2965 18.2206 15.2921 18.2163L10.8566 13.8821C10.8485 13.8742 10.8351 13.8674 10.8164 13.8674Z" fill="#007AFF"/>
</svg>
